<mxfile host="app.diagrams.net" agent="Mozilla/5.0 (Windows NT 10.0; Win64; x64) AppleWebKit/537.36 (KHTML, like Gecko) Chrome/138.0.0.0 Safari/537.36" version="28.0.3">
  <diagram name="AWS SSM Document Analysis Workflow" id="aws-ssm-analysis">
    <mxGraphModel dx="1025" dy="451" grid="1" gridSize="10" guides="1" tooltips="1" connect="1" arrows="1" fold="1" page="1" pageScale="1" pageWidth="1600" pageHeight="1200" math="0" shadow="0">
      <root>
        <mxCell id="0" />
        <mxCell id="1" parent="0" />
        <mxCell id="title" value="AWS SSM Document Python Runtime Analysis - Architecture Flow" style="text;html=1;strokeColor=none;fillColor=none;align=center;verticalAlign=middle;whiteSpace=wrap;rounded=0;fontSize=20;fontStyle=1;fontColor=#2E5C8A;" parent="1" vertex="1">
          <mxGeometry x="400" y="20" width="800" height="40" as="geometry" />
        </mxCell>
        <mxCell id="user" value="DevOps Engineer" style="sketch=0;outlineConnect=0;fontColor=#232F3E;gradientColor=none;fillColor=#FF9900;strokeColor=none;dashed=0;verticalLabelPosition=bottom;verticalAlign=top;align=center;html=1;fontSize=12;fontStyle=0;aspect=fixed;pointerEvents=1;shape=mxgraph.aws4.user;" parent="1" vertex="1">
          <mxGeometry x="40" y="410" width="60" height="60" as="geometry" />
        </mxCell>
        <mxCell id="script" value="Bash Script&#xa;get_python_ssm_documents.sh" style="rounded=1;whiteSpace=wrap;html=1;fillColor=#E1F5FE;strokeColor=#0277BD;strokeWidth=2;fontSize=11;fontStyle=1;" parent="1" vertex="1">
          <mxGeometry x="140" y="260" width="180" height="60" as="geometry" />
        </mxCell>
        <mxCell id="sts" value="AWS STS" style="sketch=0;points=[[0,0,0],[0.25,0,0],[0.5,0,0],[0.75,0,0],[1,0,0],[0,1,0],[0.25,1,0],[0.5,1,0],[0.75,1,0],[1,1,0],[0,0.25,0],[0,0.5,0],[0,0.75,0],[1,0.25,0],[1,0.5,0],[1,0.75,0]];outlineConnect=0;fontColor=#232F3E;gradientColor=#F78E04;gradientDirection=north;fillColor=#D05C17;strokeColor=#ffffff;dashed=0;verticalLabelPosition=bottom;verticalAlign=top;align=center;html=1;fontSize=12;fontStyle=0;aspect=fixed;shape=mxgraph.aws4.resourceIcon;resIcon=mxgraph.aws4.sts;" parent="1" vertex="1">
          <mxGeometry x="390" y="360" width="60" height="60" as="geometry" />
        </mxCell>
        <mxCell id="ssm" value="AWS Systems Manager" style="sketch=0;points=[[0,0,0],[0.25,0,0],[0.5,0,0],[0.75,0,0],[1,0,0],[0,1,0],[0.25,1,0],[0.5,1,0],[0.75,1,0],[1,1,0],[0,0.25,0],[0,0.5,0],[0,0.75,0],[1,0.25,0],[1,0.5,0],[1,0.75,0]];outlineConnect=0;fontColor=#232F3E;gradientColor=#4AB29A;gradientDirection=north;fillColor=#116D5B;strokeColor=#ffffff;dashed=0;verticalLabelPosition=bottom;verticalAlign=top;align=center;html=1;fontSize=12;fontStyle=0;aspect=fixed;shape=mxgraph.aws4.resourceIcon;resIcon=mxgraph.aws4.systems_manager;" parent="1" vertex="1">
          <mxGeometry x="570" y="275" width="60" height="60" as="geometry" />
        </mxCell>
        <mxCell id="discovery" value="Document Discovery&#xa;Multi-Source Approach" style="rounded=1;whiteSpace=wrap;html=1;fillColor=#FFF3E0;strokeColor=#FF9800;strokeWidth=2;fontSize=11;fontStyle=1;" parent="1" vertex="1">
          <mxGeometry x="750" y="120" width="160" height="60" as="geometry" />
        </mxCell>
        <mxCell id="self_docs" value="Self-Owned&#xa;Documents" style="rounded=1;whiteSpace=wrap;html=1;fillColor=#E8F5E8;strokeColor=#4CAF50;strokeWidth=2;fontSize=10;" parent="1" vertex="1">
          <mxGeometry x="650" y="440" width="100" height="50" as="geometry" />
        </mxCell>
        <mxCell id="account_docs" value="Account-Owned&#xa;Documents" style="rounded=1;whiteSpace=wrap;html=1;fillColor=#E8F5E8;strokeColor=#4CAF50;strokeWidth=2;fontSize=10;" parent="1" vertex="1">
          <mxGeometry x="780" y="350" width="100" height="50" as="geometry" />
        </mxCell>
        <mxCell id="aws_docs" value="AWS Managed&#xa;Documents" style="rounded=1;whiteSpace=wrap;html=1;fillColor=#E8F5E8;strokeColor=#4CAF50;strokeWidth=2;fontSize=10;" parent="1" vertex="1">
          <mxGeometry x="860" y="250" width="100" height="50" as="geometry" />
        </mxCell>
        <mxCell id="analysis" value="Document Content Analysis&#xa;Python Runtime Detection" style="rounded=1;whiteSpace=wrap;html=1;fillColor=#F3E5F5;strokeColor=#9C27B0;strokeWidth=2;fontSize=11;fontStyle=1;" parent="1" vertex="1">
          <mxGeometry x="1080" y="120" width="180" height="60" as="geometry" />
        </mxCell>
        <mxCell id="runtime_methods" value="Runtime Detection Methods" style="rounded=1;whiteSpace=wrap;html=1;fillColor=#FFF8E1;strokeColor=#FFC107;strokeWidth=2;fontSize=11;fontStyle=1;" parent="1" vertex="1">
          <mxGeometry x="1020" y="250" width="180" height="40" as="geometry" />
        </mxCell>
        <mxCell id="json_parsing" value="JSON Parsing" style="rounded=1;whiteSpace=wrap;html=1;fillColor=#E3F2FD;strokeColor=#2196F3;strokeWidth=1;fontSize=9;" parent="1" vertex="1">
          <mxGeometry x="930" y="360" width="80" height="30" as="geometry" />
        </mxCell>
        <mxCell id="pattern_matching" value="Pattern Matching" style="rounded=1;whiteSpace=wrap;html=1;fillColor=#E3F2FD;strokeColor=#2196F3;strokeWidth=1;fontSize=9;" parent="1" vertex="1">
          <mxGeometry x="1030" y="360" width="80" height="30" as="geometry" />
        </mxCell>
        <mxCell id="execute_script" value="ExecuteScript&#xa;Analysis" style="rounded=1;whiteSpace=wrap;html=1;fillColor=#E3F2FD;strokeColor=#2196F3;strokeWidth=1;fontSize=9;" parent="1" vertex="1">
          <mxGeometry x="1120" y="360" width="80" height="30" as="geometry" />
        </mxCell>
        <mxCell id="fallback" value="Fallback&#xa;Detection" style="rounded=1;whiteSpace=wrap;html=1;fillColor=#E3F2FD;strokeColor=#2196F3;strokeWidth=1;fontSize=9;" parent="1" vertex="1">
          <mxGeometry x="1210" y="360" width="80" height="30" as="geometry" />
        </mxCell>
        <mxCell id="csv_export" value="CSV Export Engine" style="rounded=1;whiteSpace=wrap;html=1;fillColor=#FFEBEE;strokeColor=#F44336;strokeWidth=2;fontSize=11;fontStyle=1;" parent="1" vertex="1">
          <mxGeometry x="1350" y="120" width="140" height="60" as="geometry" />
        </mxCell>
        <mxCell id="main_csv" value="Main Python&#xa;Documents CSV" style="rounded=1;whiteSpace=wrap;html=1;fillColor=#FFEBEE;strokeColor=#F44336;strokeWidth=1;fontSize=10;" parent="1" vertex="1">
          <mxGeometry x="1270" y="280" width="100" height="50" as="geometry" />
        </mxCell>
        <mxCell id="execute_csv" value="ExecuteScript&#xa;Details CSV" style="rounded=1;whiteSpace=wrap;html=1;fillColor=#FFEBEE;strokeColor=#F44336;strokeWidth=1;fontSize=10;" parent="1" vertex="1">
          <mxGeometry x="1370" y="280" width="100" height="50" as="geometry" />
        </mxCell>
        <mxCell id="aws_csv" value="AWS Managed&#xa;Documents CSV" style="rounded=1;whiteSpace=wrap;html=1;fillColor=#FFEBEE;strokeColor=#F44336;strokeWidth=1;fontSize=10;" parent="1" vertex="1">
          <mxGeometry x="1480" y="280" width="100" height="50" as="geometry" />
        </mxCell>
        <mxCell id="storage" value="Local File System" style="sketch=0;outlineConnect=0;fontColor=#232F3E;gradientColor=none;fillColor=#7AA116;strokeColor=none;dashed=0;verticalLabelPosition=bottom;verticalAlign=top;align=center;html=1;fontSize=12;fontStyle=0;aspect=fixed;pointerEvents=1;shape=mxgraph.aws4.generic_storage;" parent="1" vertex="1">
          <mxGeometry x="1390" y="460" width="60" height="60" as="geometry" />
        </mxCell>
        <mxCell id="console" value="Console Output&#xa;Analysis Results" style="rounded=1;whiteSpace=wrap;html=1;fillColor=#F1F8E9;strokeColor=#689F38;strokeWidth=2;fontSize=11;fontStyle=1;" parent="1" vertex="1">
          <mxGeometry x="150" y="520" width="140" height="60" as="geometry" />
        </mxCell>
        <mxCell id="arrow1" value="Execute Script" style="edgeStyle=orthogonalEdgeStyle;rounded=0;orthogonalLoop=1;jettySize=auto;html=1;strokeColor=#FF5722;strokeWidth=3;fontSize=10;fontColor=#FF5722;" parent="1" source="user" target="script" edge="1">
          <mxGeometry relative="1" as="geometry">
            <Array as="points">
              <mxPoint x="70" y="300" />
            </Array>
          </mxGeometry>
        </mxCell>
        <mxCell id="arrow2" value="Get Account ID" style="edgeStyle=orthogonalEdgeStyle;rounded=0;orthogonalLoop=1;jettySize=auto;html=1;strokeColor=#2196F3;strokeWidth=3;fontSize=10;fontColor=#2196F3;" parent="1" source="script" target="sts" edge="1">
          <mxGeometry relative="1" as="geometry" />
        </mxCell>
        <mxCell id="arrow3" value="List Documents" style="edgeStyle=orthogonalEdgeStyle;rounded=0;orthogonalLoop=1;jettySize=auto;html=1;strokeColor=#4CAF50;strokeWidth=3;fontSize=10;fontColor=#4CAF50;" parent="1" source="sts" target="ssm" edge="1">
          <mxGeometry relative="1" as="geometry">
            <Array as="points">
              <mxPoint x="480" y="390" />
              <mxPoint x="480" y="310" />
            </Array>
          </mxGeometry>
        </mxCell>
        <mxCell id="arrow4" value="Multi-Source Discovery" style="edgeStyle=orthogonalEdgeStyle;rounded=0;orthogonalLoop=1;jettySize=auto;html=1;strokeColor=#FF9800;strokeWidth=3;fontSize=10;fontColor=#FF9800;" parent="1" source="ssm" target="discovery" edge="1">
          <mxGeometry relative="1" as="geometry">
            <Array as="points">
              <mxPoint x="660" y="305" />
              <mxPoint x="660" y="150" />
            </Array>
          </mxGeometry>
        </mxCell>
        <mxCell id="arrow5" value="" style="edgeStyle=orthogonalEdgeStyle;rounded=0;orthogonalLoop=1;jettySize=auto;html=1;strokeColor=#4CAF50;strokeWidth=2;entryX=0.69;entryY=0;entryDx=0;entryDy=0;entryPerimeter=0;" parent="1" source="discovery" target="self_docs" edge="1">
          <mxGeometry relative="1" as="geometry">
            <Array as="points">
              <mxPoint x="720" y="180" />
              <mxPoint x="720" y="400" />
            </Array>
          </mxGeometry>
        </mxCell>
        <mxCell id="arrow6" value="" style="edgeStyle=orthogonalEdgeStyle;rounded=0;orthogonalLoop=1;jettySize=auto;html=1;strokeColor=#4CAF50;strokeWidth=2;" parent="1" source="discovery" target="account_docs" edge="1">
          <mxGeometry relative="1" as="geometry" />
        </mxCell>
        <mxCell id="arrow7" value="" style="edgeStyle=orthogonalEdgeStyle;rounded=0;orthogonalLoop=1;jettySize=auto;html=1;strokeColor=#4CAF50;strokeWidth=2;" parent="1" source="discovery" target="aws_docs" edge="1">
          <mxGeometry relative="1" as="geometry" />
        </mxCell>
        <mxCell id="arrow8" value="Document Content Analysis" style="edgeStyle=orthogonalEdgeStyle;rounded=0;orthogonalLoop=1;jettySize=auto;html=1;strokeColor=#9C27B0;strokeWidth=3;fontSize=10;fontColor=#9C27B0;" parent="1" source="discovery" target="analysis" edge="1">
          <mxGeometry relative="1" as="geometry" />
        </mxCell>
        <mxCell id="arrow9" value="" style="edgeStyle=orthogonalEdgeStyle;rounded=0;orthogonalLoop=1;jettySize=auto;html=1;strokeColor=#FFC107;strokeWidth=2;" parent="1" source="analysis" target="runtime_methods" edge="1">
          <mxGeometry relative="1" as="geometry" />
        </mxCell>
        <mxCell id="arrow10" value="" style="edgeStyle=orthogonalEdgeStyle;rounded=0;orthogonalLoop=1;jettySize=auto;html=1;strokeColor=#2196F3;strokeWidth=2;" parent="1" source="runtime_methods" target="json_parsing" edge="1">
          <mxGeometry relative="1" as="geometry" />
        </mxCell>
        <mxCell id="arrow11" value="" style="edgeStyle=orthogonalEdgeStyle;rounded=0;orthogonalLoop=1;jettySize=auto;html=1;strokeColor=#2196F3;strokeWidth=2;" parent="1" source="runtime_methods" target="pattern_matching" edge="1">
          <mxGeometry relative="1" as="geometry" />
        </mxCell>
        <mxCell id="arrow12" value="" style="edgeStyle=orthogonalEdgeStyle;rounded=0;orthogonalLoop=1;jettySize=auto;html=1;strokeColor=#2196F3;strokeWidth=2;" parent="1" source="runtime_methods" target="execute_script" edge="1">
          <mxGeometry relative="1" as="geometry" />
        </mxCell>
        <mxCell id="arrow13" value="" style="edgeStyle=orthogonalEdgeStyle;rounded=0;orthogonalLoop=1;jettySize=auto;html=1;strokeColor=#2196F3;strokeWidth=2;" parent="1" source="runtime_methods" target="fallback" edge="1">
          <mxGeometry relative="1" as="geometry" />
        </mxCell>
        <mxCell id="arrow14" value="Export Data" style="edgeStyle=orthogonalEdgeStyle;rounded=0;orthogonalLoop=1;jettySize=auto;html=1;strokeColor=#F44336;strokeWidth=3;fontSize=10;fontColor=#F44336;" parent="1" source="analysis" target="csv_export" edge="1">
          <mxGeometry relative="1" as="geometry" />
        </mxCell>
        <mxCell id="arrow15" value="" style="edgeStyle=orthogonalEdgeStyle;rounded=0;orthogonalLoop=1;jettySize=auto;html=1;strokeColor=#F44336;strokeWidth=2;" parent="1" source="csv_export" target="main_csv" edge="1">
          <mxGeometry relative="1" as="geometry" />
        </mxCell>
        <mxCell id="arrow16" value="" style="edgeStyle=orthogonalEdgeStyle;rounded=0;orthogonalLoop=1;jettySize=auto;html=1;strokeColor=#F44336;strokeWidth=2;" parent="1" source="csv_export" target="execute_csv" edge="1">
          <mxGeometry relative="1" as="geometry" />
        </mxCell>
        <mxCell id="arrow17" value="" style="edgeStyle=orthogonalEdgeStyle;rounded=0;orthogonalLoop=1;jettySize=auto;html=1;strokeColor=#F44336;strokeWidth=2;" parent="1" source="csv_export" target="aws_csv" edge="1">
          <mxGeometry relative="1" as="geometry" />
        </mxCell>
        <mxCell id="arrow18" value="Save to Local Disk" style="edgeStyle=orthogonalEdgeStyle;rounded=0;orthogonalLoop=1;jettySize=auto;html=1;strokeColor=#689F38;strokeWidth=3;fontSize=10;fontColor=#689F38;" parent="1" source="execute_csv" target="storage" edge="1">
          <mxGeometry relative="1" as="geometry" />
        </mxCell>
        <mxCell id="arrow19" value="Display Results" style="edgeStyle=orthogonalEdgeStyle;rounded=0;orthogonalLoop=1;jettySize=auto;html=1;strokeColor=#689F38;strokeWidth=3;fontSize=10;fontColor=#689F38;" parent="1" source="script" target="console" edge="1">
          <mxGeometry relative="1" as="geometry" />
        </mxCell>
        <mxCell id="legend_bg" value="" style="rounded=1;whiteSpace=wrap;html=1;fillColor=#FAFAFA;strokeColor=#BDBDBD;strokeWidth=2;" parent="1" vertex="1">
          <mxGeometry x="80" y="650" width="300" height="180" as="geometry" />
        </mxCell>
        <mxCell id="legend_title" value="Legend" style="text;html=1;strokeColor=none;fillColor=none;align=center;verticalAlign=middle;whiteSpace=wrap;rounded=0;fontSize=14;fontStyle=1;fontColor=#424242;" parent="1" vertex="1">
          <mxGeometry x="200" y="660" width="60" height="20" as="geometry" />
        </mxCell>
        <mxCell id="legend_auth" value="Authentication and Authorization" style="text;html=1;strokeColor=none;fillColor=none;align=left;verticalAlign=middle;whiteSpace=wrap;rounded=0;fontSize=10;fontColor=#2196F3;" parent="1" vertex="1">
          <mxGeometry x="110" y="690" width="180" height="20" as="geometry" />
        </mxCell>
        <mxCell id="legend_discovery" value="Document Discovery" style="text;html=1;strokeColor=none;fillColor=none;align=left;verticalAlign=middle;whiteSpace=wrap;rounded=0;fontSize=10;fontColor=#4CAF50;" parent="1" vertex="1">
          <mxGeometry x="110" y="710" width="180" height="20" as="geometry" />
        </mxCell>
        <mxCell id="legend_analysis" value="Content Analysis" style="text;html=1;strokeColor=none;fillColor=none;align=left;verticalAlign=middle;whiteSpace=wrap;rounded=0;fontSize=10;fontColor=#9C27B0;" parent="1" vertex="1">
          <mxGeometry x="110" y="730" width="180" height="20" as="geometry" />
        </mxCell>
        <mxCell id="legend_export" value="Data Export" style="text;html=1;strokeColor=none;fillColor=none;align=left;verticalAlign=middle;whiteSpace=wrap;rounded=0;fontSize=10;fontColor=#F44336;" parent="1" vertex="1">
          <mxGeometry x="110" y="750" width="180" height="20" as="geometry" />
        </mxCell>
        <mxCell id="legend_output" value="Output and Results" style="text;html=1;strokeColor=none;fillColor=none;align=left;verticalAlign=middle;whiteSpace=wrap;rounded=0;fontSize=10;fontColor=#689F38;" parent="1" vertex="1">
          <mxGeometry x="110" y="770" width="180" height="20" as="geometry" />
        </mxCell>
        <mxCell id="legend_processing" value="Processing and Detection" style="text;html=1;strokeColor=none;fillColor=none;align=left;verticalAlign=middle;whiteSpace=wrap;rounded=0;fontSize=10;fontColor=#FF9800;" parent="1" vertex="1">
          <mxGeometry x="110" y="790" width="180" height="20" as="geometry" />
        </mxCell>
        <mxCell id="workflow_bg" value="" style="rounded=1;whiteSpace=wrap;html=1;fillColor=#F8F9FA;strokeColor=#DEE2E6;strokeWidth=2;" parent="1" vertex="1">
          <mxGeometry x="450" y="650" width="1000" height="180" as="geometry" />
        </mxCell>
        <mxCell id="workflow_title" value="Workflow Steps" style="text;html=1;strokeColor=none;fillColor=none;align=center;verticalAlign=middle;whiteSpace=wrap;rounded=0;fontSize=14;fontStyle=1;fontColor=#424242;" parent="1" vertex="1">
          <mxGeometry x="900" y="660" width="100" height="20" as="geometry" />
        </mxCell>
        <mxCell id="step1" value="1. Script Execution" style="text;html=1;strokeColor=none;fillColor=none;align=left;verticalAlign=middle;whiteSpace=wrap;rounded=0;fontSize=10;fontColor=#424242;" parent="1" vertex="1">
          <mxGeometry x="470" y="690" width="220" height="20" as="geometry" />
        </mxCell>
        <mxCell id="step2" value="2. AWS Authentication STS" style="text;html=1;strokeColor=none;fillColor=none;align=left;verticalAlign=middle;whiteSpace=wrap;rounded=0;fontSize=10;fontColor=#424242;" parent="1" vertex="1">
          <mxGeometry x="470" y="710" width="220" height="20" as="geometry" />
        </mxCell>
        <mxCell id="step3" value="3. Multi-Source Document Discovery" style="text;html=1;strokeColor=none;fillColor=none;align=left;verticalAlign=middle;whiteSpace=wrap;rounded=0;fontSize=10;fontColor=#424242;" parent="1" vertex="1">
          <mxGeometry x="470" y="730" width="220" height="20" as="geometry" />
        </mxCell>
        <mxCell id="step4" value="4. Document Content Analysis" style="text;html=1;strokeColor=none;fillColor=none;align=left;verticalAlign=middle;whiteSpace=wrap;rounded=0;fontSize=10;fontColor=#424242;" parent="1" vertex="1">
          <mxGeometry x="470" y="750" width="220" height="20" as="geometry" />
        </mxCell>
        <mxCell id="step5" value="5. Python Runtime Detection" style="text;html=1;strokeColor=none;fillColor=none;align=left;verticalAlign=middle;whiteSpace=wrap;rounded=0;fontSize=10;fontColor=#424242;" parent="1" vertex="1">
          <mxGeometry x="470" y="770" width="220" height="20" as="geometry" />
        </mxCell>
        <mxCell id="step6" value="6. ExecuteScript Analysis" style="text;html=1;strokeColor=none;fillColor=none;align=left;verticalAlign=middle;whiteSpace=wrap;rounded=0;fontSize=10;fontColor=#424242;" parent="1" vertex="1">
          <mxGeometry x="470" y="790" width="220" height="20" as="geometry" />
        </mxCell>
        <mxCell id="step7" value="7. CSV Export Generation" style="text;html=1;strokeColor=none;fillColor=none;align=left;verticalAlign=middle;whiteSpace=wrap;rounded=0;fontSize=10;fontColor=#424242;" parent="1" vertex="1">
          <mxGeometry x="720" y="690" width="220" height="20" as="geometry" />
        </mxCell>
        <mxCell id="step8" value="8. Console Output Display" style="text;html=1;strokeColor=none;fillColor=none;align=left;verticalAlign=middle;whiteSpace=wrap;rounded=0;fontSize=10;fontColor=#424242;" parent="1" vertex="1">
          <mxGeometry x="720" y="710" width="220" height="20" as="geometry" />
        </mxCell>
        <mxCell id="step9" value="9. Local File Storage" style="text;html=1;strokeColor=none;fillColor=none;align=left;verticalAlign=middle;whiteSpace=wrap;rounded=0;fontSize=10;fontColor=#424242;" parent="1" vertex="1">
          <mxGeometry x="720" y="730" width="220" height="20" as="geometry" />
        </mxCell>
        <mxCell id="step10" value="10. Summary and Troubleshooting" style="text;html=1;strokeColor=none;fillColor=none;align=left;verticalAlign=middle;whiteSpace=wrap;rounded=0;fontSize=10;fontColor=#424242;" parent="1" vertex="1">
          <mxGeometry x="720" y="750" width="220" height="20" as="geometry" />
        </mxCell>
        <mxCell id="feature1" value="Multi-source document discovery" style="text;html=1;strokeColor=none;fillColor=none;align=left;verticalAlign=middle;whiteSpace=wrap;rounded=0;fontSize=10;fontColor=#2E7D32;" parent="1" vertex="1">
          <mxGeometry x="970" y="690" width="220" height="20" as="geometry" />
        </mxCell>
        <mxCell id="feature2" value="Specific Python version detection" style="text;html=1;strokeColor=none;fillColor=none;align=left;verticalAlign=middle;whiteSpace=wrap;rounded=0;fontSize=10;fontColor=#2E7D32;" parent="1" vertex="1">
          <mxGeometry x="970" y="710" width="220" height="20" as="geometry" />
        </mxCell>
        <mxCell id="feature3" value="ExecuteScript detailed analysis" style="text;html=1;strokeColor=none;fillColor=none;align=left;verticalAlign=middle;whiteSpace=wrap;rounded=0;fontSize=10;fontColor=#2E7D32;" parent="1" vertex="1">
          <mxGeometry x="970" y="730" width="220" height="20" as="geometry" />
        </mxCell>
        <mxCell id="feature4" value="Multiple CSV export formats" style="text;html=1;strokeColor=none;fillColor=none;align=left;verticalAlign=middle;whiteSpace=wrap;rounded=0;fontSize=10;fontColor=#2E7D32;" parent="1" vertex="1">
          <mxGeometry x="970" y="750" width="220" height="20" as="geometry" />
        </mxCell>
        <mxCell id="feature5" value="Comprehensive metadata capture" style="text;html=1;strokeColor=none;fillColor=none;align=left;verticalAlign=middle;whiteSpace=wrap;rounded=0;fontSize=10;fontColor=#2E7D32;" parent="1" vertex="1">
          <mxGeometry x="970" y="770" width="220" height="20" as="geometry" />
        </mxCell>
        <mxCell id="feature6" value="Error handling and troubleshooting" style="text;html=1;strokeColor=none;fillColor=none;align=left;verticalAlign=middle;whiteSpace=wrap;rounded=0;fontSize=10;fontColor=#2E7D32;" parent="1" vertex="1">
          <mxGeometry x="970" y="790" width="220" height="20" as="geometry" />
        </mxCell>
      </root>
    </mxGraphModel>
  </diagram>
</mxfile>
